<svg xmlns="http://www.w3.org/2000/svg" viewBox="0 0 192 192" preserveAspectRatio="xMidYMid"><defs><linearGradient id="c" x1="0%" y1="0%" x2="0%" y2="100%"><stop offset="0" stop-color="#FFF" stop-opacity=".2"/><stop offset="1" stop-color="#333" stop-opacity=".2"/></linearGradient><filter id="a" color-interpolation-filters="sRGB" x="-50%" y="-50%" height="200%" width="200%"><feOffset in="SourceAlpha" dy="4" result="SA-offset"/><feGaussianBlur in="SA-offset" stdDeviation="4" result="SA-o-blur"/><feComponentTransfer in="SA-o-blur" result="SA-o-b-contIN"><feFuncA type="table" tableValues="0 1"/></feComponentTransfer><feComposite operator="in" in="SA-o-blur" in2="SA-o-b-contIN" result="SA-o-b-cont"/><feComponentTransfer in="SA-o-b-cont" result="SA-o-b-c-sprd"><feFuncA type="linear"/></feComponentTransfer><feColorMatrix in="SA-o-b-c-sprd" values="0 0 0 0 0 0 0 0 0 0 0 0 0 0 0 0 0 0 .25 0" result="SA-o-b-c-s-recolor"/><feTurbulence result="fNoise" type="fractalNoise" numOctaves="6" baseFrequency="1.98"/><feColorMatrix in="fNoise" values="1 0 0 0 0 0 1 0 0 0 0 0 1 0 0 0 0 0 7 -3" result="clipNoise"/><feComposite operator="arithmetic" in="SA-o-b-c-s-recolor" in2="clipNoise" k2="1" result="SA-o-b-c-s-r-mix"/><feMerge><feMergeNode in="SA-o-b-c-s-r-mix"/><feMergeNode in="SourceGraphic"/></feMerge></filter><mask id="b" width="192" height="192"><rect x="20" y="20" rx="16" ry="16" width="152" height="152" fill="#FFF"/></mask></defs><rect width="151" height="151" fill="#FFF" x="20.5" y="20.5" rx="16" ry="16" filter="url(#a)"/><g mask="url(#b)"><rect width="152" height="152" fill="#E0DED9" x="20" y="20" rx="16" ry="16"/><path d="M96 36l24 24h-18v47.1l39.18 22.56 8.82-15.48 9 32.82-33 8.76 9.18-15.66L96 117.48 56.82 140.1 66 155.76 33 147l9-32.82 8.82 15.48L90 107.1V60H72l24-24z" fill="#002856"/><rect width="152" height="152" fill="none" stroke="#4a463d" stroke-width="4" x="20" y="20" rx="16" ry="16"/><path fill="url(#c)" d="M20 20h152v152H20z"/></g></svg>