<svg xmlns="http://www.w3.org/2000/svg" preserveAspectRatio="xMidYMid" viewBox="0 0 192 192"><defs><linearGradient id="c" x1="0%" x2="0%" y1="0%" y2="100%"><stop offset="0" stop-color="#FFF" stop-opacity=".2"/><stop offset="1" stop-color="#333" stop-opacity=".2"/></linearGradient><filter id="a" width="200%" height="200%" x="-50%" y="-50%" color-interpolation-filters="sRGB"><feOffset dy="4" in="SourceAlpha" result="SA-offset"/><feGaussianBlur in="SA-offset" result="SA-o-blur" stdDeviation="4"/><feComponentTransfer in="SA-o-blur" result="SA-o-b-contIN"><feFuncA tableValues="0 1" type="table"/></feComponentTransfer><feComposite in="SA-o-blur" in2="SA-o-b-contIN" operator="in" result="SA-o-b-cont"/><feComponentTransfer in="SA-o-b-cont" result="SA-o-b-c-sprd"><feFuncA type="linear"/></feComponentTransfer><feColorMatrix in="SA-o-b-c-sprd" result="SA-o-b-c-s-recolor" values="0 0 0 0 0 0 0 0 0 0 0 0 0 0 0 0 0 0 .25 0"/><feTurbulence baseFrequency="1.98" numOctaves="6" result="fNoise" type="fractalNoise"/><feColorMatrix in="fNoise" result="clipNoise" values="1 0 0 0 0 0 1 0 0 0 0 0 1 0 0 0 0 0 7 -3"/><feComposite in="SA-o-b-c-s-recolor" in2="clipNoise" k2="1" operator="arithmetic" result="SA-o-b-c-s-r-mix"/><feMerge><feMergeNode in="SA-o-b-c-s-r-mix"/><feMergeNode in="SourceGraphic"/></feMerge></filter><mask id="b" width="192" height="192"><rect width="152" height="152" x="20" y="20" fill="#FFF" rx="16" ry="16"/></mask></defs><rect width="151" height="151" x="20.5" y="20.5" fill="#FFF" filter="url(#a)" rx="16" ry="16"/><g mask="url(#b)"><rect width="152" height="152" x="20" y="20" fill="#E0DED9" rx="16" ry="16"/><path fill="#002856" d="m96 36 24 24h-18v47.1l39.18 22.56 8.82-15.48 9 32.82-33 8.76 9.18-15.66L96 117.48 56.82 140.1 66 155.76 33 147l9-32.82 8.82 15.48L90 107.1V60H72z"/><rect width="152" height="152" x="20" y="20" fill="none" stroke="#4a463d" stroke-width="4" rx="16" ry="16"/><path fill="url(#c)" d="M20 20h152v152H20z"/></g></svg>